<svg xmlns="http://www.w3.org/2000/svg" viewBox="0 0 247.57 268.05">
  <path fill="#35526A" d="M105.78,165.53c.79-4.57,1.3-9.18,1.52-13.81,0-1.99-1.62-3.61-3.61-3.61s-3.61,1.62-3.61,3.61c-.06,2.59-.26,5.18-.6,7.75l.13-.96c-.23,1.71-.54,3.4-.79,5.11-.22.94-.09,1.93.36,2.78,1.01,1.72,3.22,2.3,4.94,1.3,0,0,0,0,0,0,.83-.47,1.42-1.25,1.66-2.17h0Z"/>
  <path fill="#35526A" d="M144.72,151.65c.2,4.58.69,9.15,1.48,13.67.25.91.84,1.68,1.66,2.16,1.72,1.01,3.93.43,4.94-1.29.44-.86.56-1.84.36-2.78-.24-1.62-.54-3.22-.75-4.84l.13.96c-.35-2.61-.55-5.23-.6-7.87,0-1.99-1.62-3.61-3.61-3.61s-3.61,1.62-3.61,3.61h0Z"/>
  <path fill="#35526A" d="M161.56,168.16c-1.9-3.14-4.21-6.02-6.86-8.55-1.42-1.38-3.68-1.38-5.1,0-3.68,3.69-7.74,6.98-12.11,9.82-2.14,1.38-4.33,2.67-6.59,3.83-2.21,1.14-5.22,1.95-5.97,4.66-.36,1.99.24,4.03,1.62,5.49,1.48,1.96,3.04,3.87,4.59,5.77,2.97,3.63,5.99,7.22,8.96,10.86,1.42,1.39,3.69,1.39,5.11,0,5.31-5.62,9.93-11.85,13.78-18.56,2.43-3.97-3.81-7.61-6.24-3.64-3.53,6.18-7.78,11.91-12.65,17.09h5.11c-2.47-3.04-4.99-6.04-7.48-9.06-1.4-1.7-2.8-3.4-4.18-5.13-.38-.48-.75-.94-1.11-1.43-.15-.24-.31-.47-.49-.69-.34-.36.12-.48.06.26l-.49,1.82c-.65.53-.7.64-.16.33l.53-.24c.53-.25,1.06-.5,1.58-.76,1.07-.53,2.13-1.09,3.18-1.67,2.16-1.2,4.25-2.51,6.29-3.91,4.21-2.87,8.15-6.13,11.76-9.74h-5.1c2.21,2.1,4.14,4.48,5.73,7.09,2.44,3.94,8.69.32,6.24-3.64h0Z"/>
  <path fill="#35526A" d="M96.74,170.36c1.39-2.06,3-3.95,4.81-5.65h-5.11c3.61,3.6,7.55,6.86,11.76,9.74,2.04,1.4,4.13,2.7,6.29,3.9.96.53,1.93,1.05,2.91,1.54.52.26,1.05.52,1.59.77.26.12.53.25.79.36.55.31.49.2-.15-.33l-.49-1.82c-.05-.66.42-.65.06-.26-.14.18-.27.37-.39.56-.39.54-.79,1.03-1.21,1.56-1.37,1.73-2.77,3.43-4.18,5.13-2.49,3.02-5.01,6.02-7.48,9.06h5.11c-3.32-3.4-6.29-7.12-8.88-11.11-1.04-1.68-3.21-2.25-4.94-1.29-1.71,1.02-2.28,3.21-1.3,4.94,2.92,4.51,6.27,8.71,10.01,12.57,1.42,1.4,3.69,1.4,5.11,0,2.9-3.57,5.86-7.08,8.77-10.64,1.58-1.92,3.15-3.85,4.65-5.83,1.46-1.49,2.11-3.6,1.75-5.66-.72-2.64-3.55-3.43-5.7-4.52-2.26-1.16-4.46-2.42-6.6-3.8-4.47-2.87-8.62-6.22-12.37-9.99-1.43-1.37-3.68-1.37-5.11,0-2.24,2.14-4.23,4.53-5.94,7.11-1.01,1.72-.43,3.93,1.3,4.94,1.72,1.01,3.93.43,4.94-1.3h0Z"/>
  <path fill="#35526A" d="M192.09,188.89c1.39.64,2.53,1.16,3.27,1.5,2.45,1.8,5.5,1.05,6.47-.72.69-1.25.37-3.08-.8-4.48-4.98-2.72-10.31-4.93-15.34-7.3-7.69-3.61-15.45-7.13-22.96-11.11-4.1-2.17-7.76,4.06-3.64,6.23h0c7.32,3.86,14.88,7.3,22.37,10.82,1.8.85,5.54,2.7,10.64,5.05Z"/>
  <path fill="#35526A" d="M156.08,167.76h0c-2.89,12.52-6.58,24.84-11.07,36.87-4.89,13.74-9.89,27.44-15.16,41.05-2.5,6.45-5.07,12.88-7.71,19.28-.27,1.02-.08,2.04.44,2.87,1.93.1,3.86.24,5.78.22.05,0,.1-.01.15-.02.26-.34.47-.73.6-1.16,4.8-11.66,9.39-23.4,13.76-35.22,5.49-14.76,10.98-29.55,15.51-44.64,1.72-5.72,3.42-11.49,4.67-17.33.97-4.53-5.99-6.47-6.96-1.92Z"/>
  <path fill="#35526A" d="M86.6,166.8h0c-8.53,4.05-17,8.25-25.45,12.46-3.46,1.72-6.98,3.36-10.39,5.18-1.82.97-3.59,2.03-5.37,3.08-.76,1.3-.77,2.88,0,4.05.99,1.51,3.12,2.1,4.98,1.23.12-.02.24-.03.37-.04,1.21-.71,2.43-1.42,3.67-2.08,3.42-1.81,6.93-3.46,10.39-5.18,8.46-4.2,16.92-8.41,25.45-12.46,4.2-1.99.54-8.22-3.64-6.24Z"/>
  <path fill="#35526A" d="M120.19,267.75c2.64.04,5.31.31,7.96.3-1.68-4.83-3.45-9.64-4.95-14.53-1.28-4.17-2.57-8.35-3.85-12.52-5.36-17.49-10.68-34.99-15.95-52.51-2.02-6.67-4.04-13.34-6.06-20-1.35-4.43-8.33-2.54-6.96,1.92h0c4.52,14.81,8.98,29.65,13.48,44.47,2.57,8.47,5.14,16.93,7.72,25.39,2.8,9.17,5.47,18.42,8.63,27.48Z"/>
  <path fill="#35526A" d="M90.32,165.31c-4.76,2.49-9.21,5.54-13.24,9.08-3.91,3.18-7.44,6.82-10.51,10.82-.81,1.42-.58,3.21.57,4.38,2.22,2.57,4.42,5.16,6.6,7.76.88,1.05,1.75,2.1,2.62,3.16.38.46.75.92,1.12,1.38.54.67-.25-.36.29.38l1.29-4.94c-2.09,1.23-4.02,2.71-5.76,4.4-2.61,2.83-1.56,6.04.25,9,1.78,2.9,3.56,5.81,5.3,8.73,6.21,10.4,12.37,20.82,18.68,31.16,2.94,4.81,5.87,9.63,9.03,14.3,2.59,3.83,8.85.22,6.24-3.64-11.23-16.62-20.88-34.32-31.3-51.45-.32-.52-.64-1.05-.96-1.57-.36-.58-1.3-2.86-1.7-2.95.7.16-1.41,2.28.14.95.42-.36.84-.71,1.28-1.04.79-.59,1.62-1.13,2.44-1.67,1.7-1.02,2.28-3.21,1.3-4.94-3.59-4.95-7.78-9.52-11.77-14.15l.56,4.38c2.76-3.47,5.91-6.61,9.39-9.36,3.6-3.11,7.55-5.78,11.78-7.96,4.17-2.06.51-8.29-3.64-6.23h0Z"/>
  <path fill="#35526A" d="M156.89,171.54c4.23,2.17,8.18,4.84,11.78,7.96,3.48,2.75,6.63,5.89,9.39,9.36l.57-4.38c-3.99,4.63-8.18,9.21-11.77,14.15-.98,1.73-.4,3.92,1.3,4.94.64.42,4.3,3.09,4.22,3.16-.46.36.16-1.75-.46-1.12-.51.71-.95,1.46-1.32,2.24-.25.4-.5.8-.75,1.2-1.94,3.16-3.83,6.36-5.73,9.54-5.91,9.93-11.8,19.86-17.83,29.7-2.67,4.36-5.35,8.74-8.22,12.98-2.61,3.86,3.64,7.48,6.24,3.64,11.58-17.15,21.29-35.49,32.26-53.01,1.7-2.72,3.87-6.07,1.79-9.19-1.81-2.2-4.04-4.04-6.55-5.39l1.3,4.94c.54-.75-.25.29.29-.38.37-.46.75-.92,1.12-1.38.87-1.06,1.74-2.11,2.62-3.16,2.18-2.6,4.38-5.19,6.6-7.76,1.14-1.17,1.37-2.95.57-4.38-3.07-4.01-6.6-7.64-10.51-10.82-4.04-3.54-8.48-6.59-13.24-9.08-4.15-2.05-7.81,4.18-3.64,6.23h0Z"/>
  <path fill="#35526A" d="M172.16,113.47c-.2,2.67-.77,5.31-1.69,7.83-.11.34-.89,2.38-.4,1.28-.24.55-.5,1.09-.77,1.63-1.65,3.21-3.56,6.29-5.72,9.19-4.95,6.79-11.68,13.99-20.16,15.98-4.52,1.06-2.61,8.02,1.92,6.96,10.24-2.4,18.17-10.77,24.19-18.92,5.2-7.04,9.48-15.01,9.85-23.95.18-4.65-7.04-4.64-7.22,0h0Z"/>
  <path fill="#35526A" d="M76.41,85.04c-3.99-3.55-9.91-3.86-14.24-.74-4.43,3.3-4.87,9.12-4.45,14.24.82,9.9,6.04,22.22,16.96,24.18,1.92.47,3.87-.64,4.44-2.53.51-1.92-.61-3.9-2.53-4.44-7.04-1.26-10.24-8.86-11.39-15.19-.28-1.66-.41-3.34-.36-5.03-.11-1.51.13-3.03.69-4.43,1.19-1.83,3.64-2.36,5.48-1.17.1.07.2.14.3.22,1.43,1.36,3.67,1.36,5.11,0,1.39-1.42,1.39-3.69,0-5.11h0Z"/>
  <path fill="#35526A" d="M72.47,113.07c1.64,10.59,6.08,20.56,12.85,28.86,7.24,8.57,16.83,14.75,28.12,15.97,1.99-.01,3.6-1.62,3.61-3.61-.04-1.98-1.63-3.57-3.61-3.61-9.57-1.03-17.55-7.19-23.49-14.42-5.87-7.15-8.95-16.11-10.52-25.11-.54-1.91-2.52-3.04-4.44-2.53-1.9.56-3.01,2.52-2.53,4.44h0Z"/>
  <path fill="#35526A" d="M64.59,178.54c-6.72-2.49-11.1-8.98-10.9-16.14.28-7.7,1.37-15.34,3.25-22.81,4.29-17.46,4.25-36.16,4.11-54.02-.13-15.66,1.89-32.06,8.91-46.25,2.62-5.47,6.14-10.46,10.42-14.76,4.89-4.55,10.5-8.26,16.61-10.98,16.48-7.76,35.37-8.67,52.52-2.53,1.92.51,3.9-.61,4.44-2.53.48-1.92-.63-3.88-2.53-4.44-7.08-2.56-14.54-3.93-22.06-4.05-9.85-.45-19.69,1.04-28.97,4.36-13.94,5.13-26.27,13.62-34.02,26.47-8.57,14.2-11.78,31.21-12.42,47.57-.4,10.29.04,20.59-.49,30.89-.28,9.06-1.33,18.07-3.14,26.95-2.03,9.03-4.14,18.47-3.86,27.8.29,9.88,7.22,18,16.22,21.41,1.92.51,3.9-.61,4.44-2.53.48-1.92-.63-3.88-2.53-4.44h0Z"/>
  <path fill="#35526A" d="M116.72,51.5c-10.13,15.47-27.62,25.34-43.8,32.13-1.88.58-2.99,2.53-2.53,4.44.54,1.92,2.52,3.04,4.44,2.53,18.51-7.76,36.85-18.25,48.11-35.45,2.55-3.9-3.7-7.52-6.24-3.64h0Z"/>
  <path fill="#35526A" d="M103.58,74.11c9.47-1.26,18.64-4.22,27.06-8.75,7.92-4.12,15.96-9.3,21.78-16.17,3-3.53-2.09-8.66-5.1-5.11-5.57,6.09-12.24,11.07-19.65,14.68-7.47,4.15-15.63,6.9-24.09,8.11-1.97.06-3.55,1.64-3.61,3.61.01,1.99,1.62,3.6,3.61,3.61Z"/>
  <path fill="#35526A" d="M179.45,84.48c-7.46-3.79-12.83-10.37-17.3-17.28-4.08-6.26-6.94-13.23-8.41-20.56-.92-4.55-7.88-2.62-6.96,1.92,1.68,8.17,4.92,15.94,9.54,22.89,5.04,7.68,11.17,15.02,19.48,19.26,4.13,2.1,7.79-4.12,3.64-6.24h0Z"/>
  <path fill="#35526A" d="M161.2,16.31c4.99,3.09,9.37,7.07,12.94,11.73,4.05,5.09,7.24,10.81,9.43,16.93,2.39,6.24,3.91,12.78,4.53,19.44.51,6.14.48,12.35.47,18.5-.23,13.72.75,27.43,2.94,40.98,1.44,8.22,4.02,15.98,6.19,24.01,1.69,6.26,3.29,14.04.17,20.1-2.62,5.56-8.16,9.15-14.3,9.28-4.65-.02-4.65,7.2,0,7.22,6.63,0,12.92-2.93,17.2-7.99,4.21-4.89,6.34-11.23,5.92-17.67-.49-10.43-4.62-20.03-6.88-30.11-2.88-13.08-4.25-26.44-4.09-39.83.13-14.15.45-28.38-3.88-42.03-2.35-7.77-6.01-15.09-10.81-21.64-2.42-3.03-5.03-5.9-7.83-8.58-2.45-2.58-5.27-4.79-8.35-6.57-4.07-2.25-7.71,3.97-3.64,6.24h0Z"/>
  <path fill="#35526A" d="M180.19,90.14c1.74-1.36,4.24-1.05,5.6.69.01.02.03.04.04.06.65,1.35.93,2.84.82,4.33.06,1.78-.06,3.57-.36,5.33-1.16,6.33-4.35,13.93-11.39,15.19-1.91.54-3.04,2.52-2.53,4.44.56,1.9,2.52,3.01,4.44,2.53,10.92-1.96,16.13-14.28,16.96-24.18.42-5.12-.02-10.92-4.45-14.24-4.34-3.12-10.25-2.81-14.24.74-1.39,1.42-1.39,3.69,0,5.11,1.43,1.37,3.68,1.37,5.1,0h0Z"/>
  <path fill="#35526A" d="M115.78,130.22c3.24,1.68,6.85,2.53,10.5,2.45,3.86.15,7.66-1,10.8-3.27,1.41-1.41,1.41-3.7,0-5.11h0c-1.43-1.35-3.67-1.35-5.1,0,1.25-.97-.05-.02-.44.18-.31.16-1.12.41.02.03-.29.1-.57.22-.85.31-.77.25-1.64.27-2.38.54.38-.14.58-.07.04-.02-.23.02-.47.04-.7.06-.57.04-1.13.05-1.7.05-.51,0-1.01-.02-1.52-.05-.23-.02-.46-.03-.69-.06-.13-.01-.27-.03-.4-.04-.28-.03-.17-.02.33.04-.08.09-1-.18-1.14-.21-.36-.08-.72-.18-1.08-.28-.31-.09-.62-.2-.92-.31-.81-.28.76.36.03.02-.38-.18-.76-.36-1.13-.57-1.72-1.01-3.93-.43-4.94,1.3-1.01,1.72-.43,3.93,1.3,4.94h0Z"/>
  <path fill="#35526A" d="M123.98,106.08c.46,1.66.83,3.35,1.1,5.05l-.13-.96c.03.23.04.46.02.7l.13-.96c-.02.11-.04.21-.08.31l.36-.86c-.03.07-.07.14-.11.2l.57-.73c-.05.06-.1.11-.16.16l.72-.57c-.13.08-.26.15-.4.21l.86-.36c-.22.09-.44.16-.68.2l.96-.13c-.21.03-.42.03-.63,0l.96.13c-.24-.03-.47-.09-.71-.12-.47-.15-.97-.17-1.44-.06-.48.02-.94.17-1.34.43-1.72,1.01-2.3,3.22-1.3,4.94,0,0,0,0,0,0,.46.83,1.25,1.43,2.17,1.66.63.08,1.25.24,1.89.27,1.01,0,2.01-.24,2.91-.71,1.18-.56,2.05-1.62,2.38-2.89.21-.99.21-2.01-.02-2.99-.27-1.62-.65-3.24-1.07-4.83-.53-1.92-2.51-3.06-4.44-2.53,0,0,0,0,0,0-.91.25-1.68.85-2.17,1.66-.47.85-.6,1.84-.36,2.78h0Z"/>
  <path fill="#35526A" d="M98.29,91.52c-.84,2.74-.29,9.04,4.9,9.57,6.86-.04,7.22-7.66,4.91-11.24-1.89-2.93-7.45-4.15-9.81,1.67Z"/>
  <path fill="#35526A" d="M153.2,91.52c.84,2.74.29,9.04-4.89,9.57-6.86-.04-7.22-7.66-4.92-11.24,1.89-2.93,7.45-4.15,9.81,1.67Z"/>
</svg>
