<svg xmlns="http://www.w3.org/2000/svg" viewBox="0 0 247.57 800">
  <path fill="#35526A" d="M79.74,570.03c-2.75,22.4-.82,44.97,2.07,67.25,2.71,20.84,7.15,41.94,6.68,63.04-.24,10.55-1.94,21.27-7,30.65-2.21,4.09,4.03,7.74,6.24,3.64,9.49-17.6,8.91-38.65,6.64-57.95-2.68-22.76-6.83-45.34-8.25-68.24-.9-12.8-.61-25.66.85-38.4,0-1.99-1.62-3.6-3.61-3.61-1.97.05-3.56,1.64-3.61,3.61h0Z"/>
  <path fill="#35526A" d="M122.25,571.39c0,41.36.11,82.72-.45,124.08-.16,11.72-.38,23.44-.66,35.16-.12,4.65,7.11,4.65,7.22,0,1.03-41.47,1.09-82.95,1.1-124.42v-34.81c0-4.64-7.22-4.65-7.22,0h0Z"/>
  <path fill="#35526A" d="M165.3,570.03c2.81,22.84.75,45.85-2.24,68.56-1.49,11.36-3.21,22.68-4.66,34.05-1.46,10.04-2.04,20.19-1.75,30.34.22,10.99,2.92,21.8,7.88,31.61,2.2,4.09,8.44.45,6.24-3.64-9.12-16.94-7.7-37.68-5.42-56.13,2.75-22.26,6.69-44.41,8.05-66.82.87-12.66.57-25.36-.88-37.97-.06-1.97-1.64-3.55-3.61-3.61-1.99.01-3.6,1.62-3.61,3.61h0Z"/>
  <path fill="#35526A" d="M56.02,380.32c-2.77,17.18-4.02,34.57-3.75,51.97-.03,19.65.87,39.3,2.15,58.91,1.11,16.95,2.54,33.88,4.1,50.79.54,5.78,1.08,11.54,1.6,17.31.18,1.95.34,3.9.49,5.85.05.66.07,1.33.13,1.99.18,2.98,2.64,5.3,5.62,5.33,17.59,1.82,35.49,1.82,53.16,1.93,18.51.12,37.08.02,55.56-1.21,3.17-.21,6.35-.45,9.5-.84,2.82-.19,5.06-2.47,5.21-5.29.07-.71.09-1.44.14-2.15.33-4.51.76-9.03,1.17-13.54,1.4-15.42,2.78-30.85,3.9-46.29,1.41-19.45,2.5-38.93,2.86-58.42.59-18.15-.05-36.32-1.92-54.38-.48-4.06-1.08-8.1-1.81-12.13-.54-1.91-2.52-3.04-4.44-2.53-1.9.56-3.01,2.52-2.53,4.44,2.96,16.47,3.52,33.49,3.58,50.28.06,19.07-.75,38.13-1.93,57.16-1.03,16.67-2.38,33.32-3.87,49.95-.53,5.94-1.08,11.88-1.61,17.82-.18,2.07-.36,4.15-.53,6.22-.06.72-.11,1.44-.16,2.16-.07.32-.09.65-.06.98.18.45-1.07,1.38.82-.58,1.25-1.29.83-.87-.15-.76-16.41,1.47-32.88,2.1-49.35,1.9-18.67.11-37.38-.1-56.03-1.13-1.73-.09-3.47-.2-5.2-.32-1.83-.25-3.67-.39-5.52-.42-.26-.05-.52-.07-.78-.07,4.42-2.34,1.29,2.96,1.58,1.44.02-.33,0-.66-.06-.99-.05-.8-.12-1.6-.18-2.39-.39-4.85-.86-9.68-1.31-14.52-1.43-15.34-2.81-30.68-3.93-46.03-1.39-18.89-2.45-37.81-2.82-56.75-.59-17.78,0-35.57,1.81-53.27.4-3.52.93-6.95,1.56-10.49.47-1.92-.64-3.87-2.53-4.44-1.92-.51-3.9.61-4.44,2.53h0l-.03-.02Z"/>
  <path fill="#35526A" d="M54.59,786.92c-2.94-4.03-2.22-9.11-.09-13.36,2.85-5.07,6.17-9.86,9.91-14.32,3.65-4.76,7.42-9.42,11.31-13.98,3.09-3.64,6.41-8.68,11.35-9.79l-4.44-4.44c-.94,3.66-1.86,8.77.36,12.14,2.85,4.32,10.62,3.97,15.11,3.43,10.59-1.26,20.36-7.2,28.2-14.19l-1.59.93.36-.13h-1.91l.4.14-1.59-.93.32.32-.93-1.59c.22,1.55.27,3.12.15,4.68.08,1.59.18,3.18.26,4.78.19,3.6.71,7.58-.29,11.08-.92,3.1-3.05,5.7-5.9,7.22-2.96,1.79-5.8,3.79-8.48,5.98-10.09,8.79-16.27,23.42-30.15,27.04-7.6,1.99-17.71.68-22.93-5.75-1.42-1.4-3.69-1.4-5.1,0-1.37,1.43-1.37,3.68,0,5.1,3.93,4.84,10.45,7.44,16.49,8.3,6.51.96,13.15,0,19.12-2.77,10.62-4.91,16.58-15.48,24.37-23.63,1.88-2.03,3.97-3.85,6.23-5.44,2.24-1.51,4.59-2.82,6.74-4.46,5.52-4.21,7.41-10.21,7.32-16.99-.03-2.69-.18-5.38-.33-8.07-.16-2.77.27-6.14-.47-8.79-.43-1.5-1.6-2.68-3.1-3.12-1.72-.39-3.51.19-4.67,1.51-1.88,1.62-3.86,3.12-5.93,4.5-5.49,3.64-11.96,6.95-18.67,7.22-1.61.08-3.22.04-4.82-.11-.67-.09-1.33-.22-1.99-.39-1.4-.32,0-.37-.12.26.18-.92-.18-2.31-.07-3.36.12-1.02.31-2.02.58-3.01.5-1.95-.68-3.94-2.63-4.44-.59-.15-1.21-.15-1.81,0-6.24,1.4-10.32,6.7-14.26,11.32-4.57,5.36-8.99,10.85-13.24,16.46-10.06,13.27-12.75,32.5-9.3,34.27.86.44,2.56.04,6.22-3.62h0Z"/>
  <path fill="#35526A" d="M204.82,790.56c8.52-11.65-2.35-25.14-9.3-34.27-4.27-5.6-8.69-11.08-13.24-16.46-3.93-4.62-8.02-9.92-14.26-11.32-1.95-.5-3.94.68-4.44,2.64-.15.59-.15,1.21,0,1.81.57,1.93.82,3.94.73,5.96,0,.31-.06.62-.14.92-.26-.12,1.54-.7.15-.39-1.32.31-2.66.49-4.02.54-5.95.11-11.81-1.45-16.93-4.49-2.6-1.45-5.09-3.09-7.46-4.89-1.92-1.44-4.18-4.36-6.75-4.38-4.34-.03-4.5,3.93-4.65,7.17-.12,2.56-.39,5.1-.58,7.66-.44,6.02-.5,12.64,3.05,17.87,3.29,4.83,8.86,6.85,13.22,10.45,8.94,7.4,14.37,18.15,23.97,24.88,5.99,4.13,13.2,6.14,20.46,5.7,7.06-.43,15.02-2.98,19.62-8.65,1.35-1.43,1.35-3.67,0-5.1-1.42-1.4-3.69-1.4-5.11,0-4.6,5.67-13.27,7.38-20.2,6.33-7.22-1.1-12.85-5.25-17.67-10.52-4.71-5.14-8.68-10.95-13.75-15.77-2.63-2.43-5.49-4.59-8.55-6.44-2.42-1.52-5.29-3.13-6.53-5.85-1.81-3.96-1.61-8.06-1.33-12.29.11-1.62.27-3.25.4-4.87.07-.9.14-1.82.18-2.72-.08-1-.04-2,.14-2.99l-1.66,2.16.36-.23-1.82.49.45-.05-1.82-.49c.81.51,1.57,1.11,2.25,1.79,1.05.85,2.12,1.67,3.2,2.48,2.12,1.58,4.33,3.02,6.63,4.33,4.97,2.96,10.49,4.85,16.23,5.56,4.33.44,11.92.74,14.62-3.45,2.26-3.51,1.24-8.85.27-12.62l-4.44,4.44c4.82,1.08,8.05,5.91,11.07,9.46,3.98,4.67,7.84,9.44,11.59,14.31,3.64,4.37,6.9,9.04,9.73,13.98,2.24,4.33,3.13,9.53.09,13.69-.99,1.72-.42,3.92,1.29,4.94,1.74.97,3.92.39,4.95-1.31h0Z"/>
  <path fill="#35526A" d="M105.78,165.53c.79-4.57,1.3-9.18,1.52-13.81,0-1.99-1.62-3.61-3.61-3.61s-3.61,1.62-3.61,3.61c-.06,2.59-.26,5.18-.6,7.75l.13-.96c-.23,1.71-.54,3.4-.79,5.11-.22.94-.09,1.93.36,2.78,1.01,1.72,3.22,2.3,4.94,1.3h0c.83-.47,1.42-1.25,1.66-2.17h0Z"/>
  <path fill="#35526A" d="M144.72,151.65c.2,4.58.69,9.15,1.48,13.67.25.91.84,1.68,1.66,2.16,1.72,1.01,3.93.43,4.94-1.29.44-.86.56-1.84.36-2.78-.24-1.62-.54-3.22-.75-4.84l.13.96c-.35-2.61-.55-5.23-.6-7.87,0-1.99-1.62-3.61-3.61-3.61s-3.61,1.62-3.61,3.61h0Z"/>
  <path fill="#35526A" d="M161.56,168.16c-1.9-3.14-4.21-6.02-6.86-8.55-1.42-1.38-3.68-1.38-5.1,0-3.68,3.69-7.74,6.98-12.11,9.82-2.14,1.38-4.33,2.67-6.59,3.83-2.21,1.14-5.22,1.95-5.97,4.66-.36,1.99.24,4.03,1.62,5.49,1.48,1.96,3.04,3.87,4.59,5.77,2.97,3.63,5.99,7.22,8.96,10.86,1.42,1.39,3.69,1.39,5.11,0,5.31-5.62,9.93-11.85,13.78-18.56,2.43-3.97-3.81-7.61-6.24-3.64-3.53,6.18-7.78,11.91-12.65,17.09h5.11c-2.47-3.04-4.99-6.04-7.48-9.06-1.4-1.7-2.8-3.4-4.18-5.13-.38-.48-.75-.94-1.11-1.43-.15-.24-.31-.47-.49-.69-.34-.36.12-.48.06.26l-.49,1.82c-.65.53-.7.64-.16.33l.53-.24c.53-.25,1.06-.5,1.58-.76,1.07-.53,2.13-1.09,3.18-1.67,2.16-1.2,4.25-2.51,6.29-3.91,4.21-2.87,8.15-6.13,11.76-9.74h-5.1c2.21,2.1,4.14,4.48,5.73,7.09,2.44,3.94,8.69.32,6.24-3.64h0Z"/>
  <path fill="#35526A" d="M96.74,170.36c1.39-2.06,3-3.95,4.81-5.65h-5.11c3.61,3.6,7.55,6.86,11.76,9.74,2.04,1.4,4.13,2.7,6.29,3.9.96.53,1.93,1.05,2.91,1.54.52.26,1.05.52,1.59.77.26.12.53.25.79.36.55.31.49.2-.15-.33l-.49-1.82c-.05-.66.42-.65.06-.26-.14.18-.27.37-.39.56-.39.54-.79,1.03-1.21,1.56-1.37,1.73-2.77,3.43-4.18,5.13-2.49,3.02-5.01,6.02-7.48,9.06h5.11c-3.32-3.4-6.29-7.12-8.88-11.11-1.04-1.68-3.21-2.25-4.94-1.29-1.71,1.02-2.28,3.21-1.3,4.94,2.92,4.51,6.27,8.71,10.01,12.57,1.42,1.4,3.69,1.4,5.11,0,2.9-3.57,5.86-7.08,8.77-10.64,1.58-1.92,3.15-3.85,4.65-5.83,1.46-1.49,2.11-3.6,1.75-5.66-.72-2.64-3.55-3.43-5.7-4.52-2.26-1.16-4.46-2.42-6.6-3.8-4.47-2.87-8.62-6.22-12.37-9.99-1.43-1.37-3.68-1.37-5.11,0-2.24,2.14-4.23,4.53-5.94,7.11-1.01,1.72-.43,3.93,1.3,4.94,1.72,1.01,3.93.43,4.94-1.3h0v.02Z"/>
  <path fill="#35526A" d="M159.08,173.01c7.32,3.87,14.88,7.31,22.37,10.83,3.55,1.67,7.11,3.33,10.64,5.05,4.37,1.84,8.51,4.2,12.32,7.01,3.56,2.94,8.69-2.14,5.1-5.11-6.93-5.72-15.76-9.11-23.83-12.91-7.69-3.61-15.45-7.13-22.96-11.11-4.1-2.17-7.76,4.06-3.64,6.24h0Z"/>
  <path fill="#35526A" d="M120.14,288.51c.02-1.72-.43-3.41-1.3-4.89-1.1-1.75-2.79-3.05-4.76-3.65-2.03-.64-4.21-.62-6.23.04-1.98.65-3.66,1.99-4.73,3.78-1.73,3.02-1.75,6.73-.04,9.76,2.33,3.56,6.73,5.17,10.81,3.94,3.84-1.27,6.39-4.92,6.25-8.97,0-1.99-1.62-3.61-3.61-3.61s-3.61,1.62-3.61,3.61c0,.33-.03.67-.07,1l.13-.96c-.08.58-.24,1.14-.46,1.68l.36-.86c-.18.42-.41.82-.68,1.18l.57-.73c-.24.31-.52.59-.83.84l.72-.57c-.3.23-.63.42-.98.58l.86-.36c-.44.18-.9.31-1.36.38l.96-.13c-.66.08-1.33.08-1.99,0l.96.13c-.54-.07-1.07-.21-1.58-.41l.86.36c-.4-.17-.78-.39-1.13-.64l.72.57c-.35-.27-.66-.58-.93-.92l.57.73c-.27-.36-.5-.75-.67-1.16l.36.86c-.19-.45-.31-.92-.38-1.41l.13.96c-.06-.58-.05-1.16.02-1.73l-.13.96c.08-.59.24-1.17.47-1.72l-.36.86c.17-.38.38-.74.62-1.07l-.57.73c.26-.33.55-.62.88-.88l-.73.56c.32-.23.66-.43,1.02-.6l-.86.36c.5-.21,1.03-.35,1.57-.43l-.96.13c.62-.08,1.25-.08,1.87,0l-.96-.13c.55.07,1.08.21,1.6.41l-.86-.36c.4.17.78.39,1.13.65l-.73-.56c.28.23.54.48.77.77l-.57-.73c.26.34.48.71.65,1.11l-.36-.86c.19.47.32.96.4,1.46l-.13-.96c.04.31.06.62.06.93,0,1.99,1.62,3.61,3.61,3.61s3.61-1.62,3.61-3.61h.01v-.03Z"/>
  <path fill="#35526A" d="M156.07,167.76c-2.89,12.52-6.58,24.83-11.07,36.87-4.89,13.74-9.89,27.44-15.16,41.05-2.5,6.45-5.07,12.88-7.71,19.28-.52,1.92.61,3.9,2.53,4.44,1.92.48,3.87-.63,4.44-2.53,4.8-11.66,9.39-23.4,13.76-35.22,5.49-14.76,10.98-29.55,15.51-44.64,1.72-5.72,3.42-11.49,4.67-17.33.97-4.53-5.99-6.47-6.96-1.92h0Z"/>
  <path fill="#35526A" d="M132.07,368.19c2.58,5.1,6.01,11.03,11.41,13.58,3.59,1.48,7.4,2.37,11.28,2.64,9.57,1,19.21,1.12,28.8.35,4.4-.22,8.78-.73,13.11-1.53,1.57-.43,2.65-1.86,2.65-3.48-1.54-13.85-3.61-27.65-5.42-41.47-.06-1.97-1.64-3.55-3.61-3.61-1.99.01-3.6,1.62-3.61,3.61,1.82,13.82,3.88,27.62,5.42,41.47l2.65-3.48c-4.32.76-8.68,1.23-13.07,1.38-5.83.32-11.69.42-17.53.21-4.91-.03-9.8-.57-14.6-1.61-1.84-.23-3.56-1.06-4.89-2.35-2.67-2.71-4.83-5.88-6.36-9.36-2.1-4.15-8.33-.49-6.23,3.64h0Z"/>
  <path fill="#35526A" d="M86.6,166.8c-8.53,4.05-17,8.25-25.45,12.46-3.46,1.72-6.98,3.36-10.39,5.18-2.91,1.55-5.68,3.36-8.61,4.89-4.12,2.15-.47,8.39,3.64,6.24,2.92-1.53,5.69-3.34,8.61-4.89,3.42-1.81,6.93-3.46,10.39-5.18,8.46-4.2,16.92-8.41,25.45-12.46,4.2-1.99.54-8.22-3.64-6.24h0Z"/>
  <path fill="#35526A" d="M90.36,170.41c4.52,14.81,8.98,29.65,13.48,44.47,2.57,8.47,5.14,16.93,7.72,25.39,3.28,10.74,6.37,21.58,10.29,32.12,3.12,7.96,4.8,16.41,4.96,24.96-.15,7.71-.79,15.41-1.92,23.04.01,1.99,1.62,3.6,3.61,3.61,1.97-.05,3.56-1.64,3.61-3.61,1.73-14.42,3.23-28.7-.9-42.89-2.35-8.07-5.54-15.92-8.01-23.97-1.28-4.17-2.57-8.35-3.85-12.52-5.36-17.49-10.68-34.99-15.95-52.51-2.02-6.67-4.04-13.34-6.06-20-1.35-4.43-8.33-2.54-6.96,1.92h-.02Z"/>
  <path fill="#35526A" d="M90.32,165.31c-4.76,2.49-9.21,5.54-13.24,9.08-3.91,3.18-7.44,6.82-10.51,10.82-.81,1.42-.58,3.21.57,4.38,2.22,2.57,4.42,5.16,6.6,7.76.88,1.05,1.75,2.1,2.62,3.16.38.46.75.92,1.12,1.38.54.67-.25-.36.29.38l1.29-4.94c-2.09,1.23-4.02,2.71-5.76,4.4-2.61,2.83-1.56,6.04.25,9,1.78,2.9,3.56,5.81,5.3,8.73,6.21,10.4,12.37,20.82,18.68,31.16,2.94,4.81,5.87,9.63,9.03,14.3,2.59,3.83,8.85.22,6.24-3.64-11.23-16.62-20.88-34.32-31.3-51.45-.32-.52-.64-1.05-.96-1.57-.36-.58-1.3-2.86-1.7-2.95.7.16-1.41,2.28.14.95.42-.36.84-.71,1.28-1.04.79-.59,1.62-1.13,2.44-1.67,1.7-1.02,2.28-3.21,1.3-4.94-3.59-4.95-7.78-9.52-11.77-14.15l.56,4.38c2.76-3.47,5.91-6.61,9.39-9.36,3.6-3.11,7.55-5.78,11.78-7.96,4.17-2.06.51-8.29-3.64-6.23h0v.02Z"/>
  <path fill="#35526A" d="M156.89,171.54c4.23,2.17,8.18,4.84,11.78,7.96,3.48,2.75,6.63,5.89,9.39,9.36l.57-4.38c-3.99,4.63-8.18,9.21-11.77,14.15-.98,1.73-.4,3.92,1.3,4.94.64.42,4.3,3.09,4.22,3.16-.46.36.16-1.75-.46-1.12-.51.71-.95,1.46-1.32,2.24-.25.4-.5.8-.75,1.2-1.94,3.16-3.83,6.36-5.73,9.54-5.91,9.93-11.8,19.86-17.83,29.7-2.67,4.36-5.35,8.74-8.22,12.98-2.61,3.86,3.64,7.48,6.24,3.64,11.58-17.15,21.29-35.49,32.26-53.01,1.7-2.72,3.87-6.07,1.79-9.19-1.81-2.2-4.04-4.04-6.55-5.39l1.3,4.94c.54-.75-.25.29.29-.38.37-.46.75-.92,1.12-1.38.87-1.06,1.74-2.11,2.62-3.16,2.18-2.6,4.38-5.19,6.6-7.76,1.14-1.17,1.37-2.95.57-4.38-3.07-4.01-6.6-7.64-10.51-10.82-4.04-3.54-8.48-6.59-13.24-9.08-4.15-2.05-7.81,4.18-3.64,6.23h-.03Z"/>
  <path fill="#35526A" d="M197.73,191.31c-1.95,23.85-6.12,47.59-9.71,71.24-1.28,8.42-2.55,16.85-3.82,25.27-.46,1.92.64,3.86,2.53,4.44,1.92.51,3.9-.61,4.44-2.53,4.13-27.52,8.61-55.01,12.08-82.62.66-5.25,1.28-10.52,1.71-15.8.38-4.63-6.84-4.61-7.22,0h0Z"/>
  <path fill="#35526A" d="M52.91,338.54c-1.81,13.75-3.87,27.48-5.4,41.27,0,1.62,1.08,3.05,2.65,3.48,7.46,1.3,15.02,1.94,22.6,1.91,9.34.26,19.05.36,28.24-1.58,6.17-1.35,11.82-4.46,16.25-8.97,3.28-3.3-1.83-8.41-5.1-5.1-8.46,8.53-20.69,8.48-31.91,8.53-5.71.02-11.41-.16-17.12-.55-3.7-.15-7.38-.55-11.02-1.19l2.65,3.48c1.53-13.79,3.59-27.52,5.4-41.27,0-1.99-1.62-3.6-3.61-3.61-1.97.05-3.56,1.64-3.61,3.61h-.02Z"/>
  <path fill="#35526A" d="M42.06,192.38c2,24.5,6.29,48.87,9.97,73.16,1.31,8.63,2.61,17.25,3.91,25.88.54,1.92,2.52,3.04,4.44,2.53,1.89-.57,3-2.52,2.53-4.44-4.07-27.14-8.53-54.24-11.94-81.47-.65-5.2-1.26-10.42-1.69-15.65-.38-4.6-7.6-4.64-7.22,0h0Z"/>
  <path fill="#35526A" d="M102.31,324.52c1.43.23,2.86.41,4.29.59l.97.13c.18.02,1.11.14.49.06s.03,0,.17.03l.43.06c.32.05.64.1.95.15,1.13.17,2.25.41,3.35.7.49.14.97.3,1.44.47s-.4-.18-.4-.17c.03-.02.25.12.29.14.23.11.45.24.66.37,1.72,1.01,3.93.43,4.94-1.3s.43-3.93-1.3-4.94c-2.12-1.17-4.45-1.92-6.86-2.2-1.49-.25-3-.44-4.5-.63l-1.82-.23c-.46-.06.87.12.22.03l-.41-.06c-.34-.05-.67-.1-1.01-.15-.94-.23-1.93-.1-2.78.36-1.72,1.01-2.3,3.22-1.3,4.94.48.81,1.25,1.41,2.16,1.66h.02Z"/>
  <path fill="#35526A" d="M112.1,332.53c-1.48-.57-2.97-1.09-4.47-1.57-.47-.15-.97-.17-1.44-.06-.48.02-.94.17-1.34.43-.79.51-1.37,1.27-1.66,2.17-.25.94-.13,1.94.36,2.78.5.8,1.27,1.39,2.17,1.66,1.51.48,3,1,4.47,1.57.47.15.97.17,1.44.06.94-.09,1.8-.59,2.35-1.36.32-.35.54-.77.65-1.23.25-.94.12-1.94-.36-2.78l-.57-.73c-.44-.44-.99-.76-1.59-.93h-.01Z"/>
  <path fill="#35526A" d="M95.31,350.67c-2.17-1.66-4.45-3.14-6.68-4.7-1.72-1.01-3.93-.43-4.94,1.29-.49.84-.62,1.85-.36,2.79l.36.86c.31.54.76.98,1.3,1.3,2.23,1.57,4.51,3.04,6.68,4.7.4.26.87.41,1.34.43.48.11.98.09,1.44-.06.91-.26,1.68-.85,2.17-1.66.49-.84.62-1.84.36-2.78l-.36-.86c-.31-.54-.76-.98-1.3-1.3h-.01,0Z"/>
  <path fill="#35526A" d="M118.07,332.58c.46-3.91,6.36-6.21,9.71-7.43,1.1-.4,2.23-.72,3.38-.97.42-.09-.36,0,.29-.05.22-.01.43-.02.65-.02.86-.01,1.74.04,2.6.07,3.3.11,6.6.3,9.91.17,1.99,0,3.61-1.62,3.61-3.61s-1.62-3.61-3.61-3.61c-3.78.15-7.56-.12-11.34-.21-3.12-.01-6.2.64-9.05,1.92-2.82,1.06-5.49,2.48-7.93,4.24-3.06,2.27-5.04,5.71-5.44,9.5.01,1.99,1.62,3.6,3.61,3.61,1.97-.05,3.56-1.64,3.61-3.61h0Z"/>
  <path fill="#35526A" d="M126.58,329.22c-8.46,3.61-16.6,7.93-24.33,12.91-4.69,3.21-8.61,6.71-9.21,12.76-.48,5.43,3.53,10.22,8.95,10.7.8.07,1.6.04,2.39-.08l-4.44-4.44c-1.09,3.49.87,7.63,3.51,9.85,3.39,2.55,7.99,2.82,11.65.67l-4.94-4.94c-2.62,4.78,2.41,10.36,7.29,10.35,5.02-.01,10.08-2.75,14.5-4.89,10.83-5.19,21.1-11.48,30.64-18.77,1.67-1.05,2.23-3.21,1.3-4.94-1.01-1.71-3.22-2.29-4.94-1.3-7.67,5.94-15.85,11.17-24.45,15.65-3.44,1.79-6.91,3.61-10.48,5.13-1.94,1.04-4.07,1.67-6.27,1.86-.25-.03-.49-.08-.72-.17-1.06-.27.45-1.25-.63.71.96-1.76.32-3.97-1.45-4.94-1.09-.6-2.41-.6-3.5,0-1.03.62-2.32.64-3.37.06-.57-.48-.97-1.13-1.14-1.86-.03-.26-.04-.51-.02-.77.01.18-.16.66-.02.21.5-1.96-.69-3.95-2.65-4.44-.59-.15-1.21-.15-1.79,0-1.15.18-2.19-1.68-2.26-2.25-.08-1.9.63-3.74,1.95-5.1,2.21-2.05,4.69-3.79,7.37-5.17,6.72-3.87,13.63-7.4,20.7-10.58,1.71-1.02,2.28-3.22,1.29-4.94-1.04-1.68-3.21-2.25-4.94-1.3h0v.02Z"/>
  <path fill="#35526A" d="M128.32,339.68c-3.16,1.78-6.23,3.72-9.36,5.56-2.09,1.23-4.19,2.44-6.32,3.6-.9.5-1.82.99-2.74,1.45-.39.2-.79.4-1.19.58-.2.1-.41.18-.61.28-.8.37.7-.28.18-.07-1.89.57-3,2.52-2.53,4.44.54,1.91,2.52,3.04,4.44,2.53,7.69-3.15,14.55-8.07,21.76-12.13,1.72-1.01,2.3-3.22,1.3-4.94s-3.22-2.3-4.94-1.3h0Z"/>
  <path fill="#35526A" d="M134.69,347.69c-2.71,1.9-5.54,3.62-8.48,5.17-2.02,1.16-4.05,2.29-6.11,3.38-.93.49-1.86.96-2.79,1.42-.41.2-.82.4-1.24.59-.19.09-.38.17-.57.25-.58.27.94-.38.12-.05-1.89.57-3,2.52-2.53,4.44.54,1.91,2.52,3.04,4.44,2.53,4.17-1.79,8.21-3.86,12.11-6.2,3.01-1.58,5.91-3.35,8.69-5.29,1.68-1.04,2.25-3.21,1.29-4.94-1.02-1.71-3.21-2.28-4.94-1.29h0Z"/>
  <path fill="#35526A" d="M40.02,283.18c7.57,3.99,14.73,8.96,21.97,13.5,10.35,6.5,20.67,13.05,31.03,19.55,3.16,1.99,6.31,4.02,9.54,5.89l-1.29-4.94c-6.32,11.63-12.82,23.16-20.02,34.26l4.94-1.3c-10.92-5.08-21.43-11.25-31.78-17.38-6.64-3.93-13.22-7.98-19.63-12.28-5.88-3.7-11.51-7.78-16.85-12.22-5.17-4.56-10.57-10.62-10.79-17.89-.23-7.71,3.75-15.32,6.26-22.42,4.46-12.64,8.78-25.33,13.28-37.96,2.35-6.59,4.7-13.18,7.27-19.69,1.18-3.48,2.89-6.75,5.07-9.71,1.91-2.12,4.22-3.83,6.79-5.05,4.03-2.32.4-8.56-3.64-6.24-2.64,1.35-5.08,3.06-7.24,5.09-2.12,2.23-3.87,4.79-5.17,7.58-2.9,6.37-5.47,12.9-7.68,19.55-4.91,13.55-9.61,27.19-14.35,40.82-2.55,7.33-6.07,14.71-7.34,22.41-1.38,8.38,1.16,15.69,6.35,22.28,4.85,6.15,11.37,10.74,17.76,15.14,6.26,4.3,12.56,8.48,19.03,12.46,12.58,7.98,25.61,15.24,39.02,21.74,1.73.95,3.9.38,4.94-1.29,7.21-11.11,13.7-22.64,20.02-34.26.96-1.72.39-3.9-1.3-4.93-7.53-4.35-14.8-9.19-22.15-13.83-10.31-6.5-20.61-13.04-30.97-19.46-3.1-1.92-6.18-3.96-9.41-5.66-4.11-2.17-7.76,4.07-3.64,6.23h-.02Z"/>
  <path fill="#35526A" d="M203.82,275.93c-7.57,3.99-14.73,8.95-21.97,13.5-10.35,6.5-20.67,13.05-31.03,19.55-3.16,1.99-6.31,4.03-9.54,5.89-1.69,1.03-2.26,3.21-1.29,4.94,6.32,11.63,12.82,23.16,20.02,34.26,1.05,1.67,3.21,2.24,4.94,1.29,11.29-5.47,22.3-11.51,32.99-18.1,6.69-3.99,13.32-8.09,19.77-12.46,6.21-3.95,12.14-8.33,17.73-13.12,5.83-5.31,10.99-12.14,11.97-20.17.97-7.94-2.36-15.63-5.04-22.91-4.84-13.16-9.22-26.49-13.92-39.7-2.46-6.92-4.94-13.84-7.6-20.69-1.3-3.8-3.04-7.43-5.2-10.81-1.8-2.43-3.85-4.65-6.14-6.62-3.42-3.14-8.53,1.95-5.1,5.11,1.71,1.46,3.3,3.06,4.74,4.79,1.84,2.66,3.31,5.56,4.4,8.61,2.21,5.61,4.25,11.29,6.29,16.97,4.55,12.68,8.94,25.42,13.37,38.14,2.44,7.01,5.97,14.15,6.99,21.56.98,7.15-2.63,13.28-7.44,18.27-5.1,4.84-10.66,9.17-16.61,12.91-6.04,4.18-12.25,8.1-18.54,11.91-11.73,7.34-23.85,14.05-36.3,20.08l4.94,1.3c-7.2-11.1-13.7-22.64-20.02-34.26l-1.3,4.94c7.53-4.35,14.8-9.19,22.15-13.83,10.31-6.5,20.61-13.04,30.98-19.46,3.1-1.92,6.18-3.96,9.41-5.66,4.11-2.17.47-8.4-3.64-6.24h0Z"/>
  <path fill="#35526A" d="M172.16,113.47c-.2,2.67-.77,5.31-1.69,7.83-.11.34-.89,2.38-.4,1.28-.24.55-.5,1.09-.77,1.63-1.65,3.21-3.56,6.29-5.72,9.19-4.95,6.79-11.68,13.99-20.16,15.98-4.52,1.06-2.61,8.02,1.92,6.96,10.24-2.4,18.17-10.77,24.19-18.92,5.2-7.04,9.48-15.01,9.85-23.95.18-4.65-7.04-4.64-7.22,0h0Z"/>
  <path fill="#35526A" d="M76.41,85.04c-3.99-3.55-9.91-3.86-14.24-.74-4.43,3.3-4.87,9.12-4.45,14.24.82,9.9,6.04,22.22,16.96,24.18,1.92.47,3.87-.64,4.44-2.53.51-1.92-.61-3.9-2.53-4.44-7.04-1.26-10.24-8.86-11.39-15.19-.28-1.66-.41-3.34-.36-5.03-.11-1.51.13-3.03.69-4.43,1.19-1.83,3.64-2.36,5.48-1.17.1.07.2.14.3.22,1.43,1.36,3.67,1.36,5.11,0,1.39-1.42,1.39-3.69,0-5.11h-.01Z"/>
  <path fill="#35526A" d="M72.47,113.07c1.64,10.59,6.08,20.56,12.85,28.86,7.24,8.57,16.83,14.75,28.12,15.97,1.99,0,3.6-1.62,3.61-3.61-.04-1.98-1.63-3.57-3.61-3.61-9.57-1.03-17.55-7.19-23.49-14.42-5.87-7.15-8.95-16.11-10.52-25.11-.54-1.91-2.52-3.04-4.44-2.53-1.9.56-3.01,2.52-2.53,4.44h0Z"/>
  <path fill="#35526A" d="M64.59,178.54c-6.72-2.49-11.1-8.98-10.9-16.14.28-7.7,1.37-15.34,3.25-22.81,4.29-17.46,4.25-36.16,4.11-54.02-.13-15.66,1.89-32.06,8.91-46.25,2.62-5.47,6.14-10.46,10.42-14.76,4.89-4.55,10.5-8.26,16.61-10.98,16.48-7.76,35.37-8.67,52.52-2.53,1.92.51,3.9-.61,4.44-2.53.48-1.92-.63-3.88-2.53-4.44C144.34,1.52,136.88.15,129.36.03c-9.85-.45-19.69,1.04-28.97,4.36-13.94,5.13-26.27,13.62-34.02,26.47-8.57,14.2-11.78,31.21-12.42,47.57-.4,10.29.04,20.59-.49,30.89-.28,9.06-1.33,18.07-3.14,26.95-2.03,9.03-4.14,18.47-3.86,27.8.29,9.88,7.22,18,16.22,21.41,1.92.51,3.9-.61,4.44-2.53.48-1.92-.63-3.88-2.53-4.44h0v.03Z"/>
  <path fill="#35526A" d="M116.72,51.5c-10.13,15.47-27.62,25.34-43.8,32.13-1.88.58-2.99,2.53-2.53,4.44.54,1.92,2.52,3.04,4.44,2.53,18.51-7.76,36.85-18.25,48.11-35.45,2.55-3.9-3.7-7.52-6.24-3.64h.02Z"/>
  <path fill="#35526A" d="M103.58,74.11c9.47-1.26,18.64-4.22,27.06-8.75,7.92-4.12,15.96-9.3,21.78-16.17,3-3.53-2.09-8.66-5.1-5.11-5.57,6.09-12.24,11.07-19.65,14.68-7.47,4.15-15.63,6.9-24.09,8.11-1.97.06-3.55,1.64-3.61,3.61.01,1.99,1.62,3.6,3.61,3.61v.02Z"/>
  <path fill="#35526A" d="M179.45,84.48c-7.46-3.79-12.83-10.37-17.3-17.28-4.08-6.26-6.94-13.23-8.41-20.56-.92-4.55-7.88-2.62-6.96,1.92,1.68,8.17,4.92,15.94,9.54,22.89,5.04,7.68,11.17,15.02,19.48,19.26,4.13,2.1,7.79-4.12,3.64-6.24h.01Z"/>
  <path fill="#35526A" d="M161.2,16.31c4.99,3.09,9.37,7.07,12.94,11.73,4.05,5.09,7.24,10.81,9.43,16.93,2.39,6.24,3.91,12.78,4.53,19.44.51,6.14.48,12.35.47,18.5-.23,13.72.75,27.43,2.94,40.98,1.44,8.22,4.02,15.98,6.19,24.01,1.69,6.26,3.29,14.04.17,20.1-2.62,5.56-8.16,9.15-14.3,9.28-4.65-.02-4.65,7.2,0,7.22,6.63,0,12.92-2.93,17.2-7.99,4.21-4.89,6.34-11.23,5.92-17.67-.49-10.43-4.62-20.03-6.88-30.11-2.88-13.08-4.25-26.44-4.09-39.83.13-14.15.45-28.38-3.88-42.03-2.35-7.77-6.01-15.09-10.81-21.64-2.42-3.03-5.03-5.9-7.83-8.58-2.45-2.58-5.27-4.79-8.35-6.57-4.07-2.25-7.71,3.97-3.64,6.24h0Z"/>
  <path fill="#35526A" d="M180.19,90.14c1.74-1.36,4.24-1.05,5.6.69,0,.02.03.04.04.06.65,1.35.93,2.84.82,4.33.06,1.78-.06,3.57-.36,5.33-1.16,6.33-4.35,13.93-11.39,15.19-1.91.54-3.04,2.52-2.53,4.44.56,1.9,2.52,3.01,4.44,2.53,10.92-1.96,16.13-14.28,16.96-24.18.42-5.12-.02-10.92-4.45-14.24-4.34-3.12-10.25-2.81-14.24.74-1.39,1.42-1.39,3.69,0,5.11,1.43,1.37,3.68,1.37,5.1,0h0Z"/>
  <path fill="#35526A" d="M115.78,130.22c3.24,1.68,6.85,2.53,10.5,2.45,3.86.15,7.66-1,10.8-3.27,1.41-1.41,1.41-3.7,0-5.11h0c-1.43-1.35-3.67-1.35-5.1,0,1.25-.97-.05-.02-.44.18-.31.16-1.12.41.02.03-.29.1-.57.22-.85.31-.77.25-1.64.27-2.38.54.38-.14.58-.07.04-.02-.23.02-.47.04-.7.06-.57.04-1.13.05-1.7.05-.51,0-1.01-.02-1.52-.05-.23-.02-.46-.03-.69-.06-.13-.01-.27-.03-.4-.04-.28-.03-.17-.02.33.04-.08.09-1-.18-1.14-.21-.36-.08-.72-.18-1.08-.28-.31-.09-.62-.2-.92-.31-.81-.28.76.36.03.02-.38-.18-.76-.36-1.13-.57-1.72-1.01-3.93-.43-4.94,1.3-1.01,1.72-.43,3.93,1.3,4.94h-.03Z"/>
  <path fill="#35526A" d="M123.98,106.08c.46,1.66.83,3.35,1.1,5.05l-.13-.96c.03.23.04.46.02.7l.13-.96c-.02.11-.04.21-.08.31l.36-.86c-.03.07-.07.14-.11.2l.57-.73c-.05.06-.1.11-.16.16l.72-.57c-.13.08-.26.15-.4.21l.86-.36c-.22.09-.44.16-.68.2l.96-.13c-.21.03-.42.03-.63,0l.96.13c-.24-.03-.47-.09-.71-.12-.47-.15-.97-.17-1.44-.06-.48.02-.94.17-1.34.43-1.72,1.01-2.3,3.22-1.3,4.94h0c.46.83,1.25,1.43,2.17,1.66.63.08,1.25.24,1.89.27,1.01,0,2.01-.24,2.91-.71,1.18-.56,2.05-1.62,2.38-2.89.21-.99.21-2.01-.02-2.99-.27-1.62-.65-3.24-1.07-4.83-.53-1.92-2.51-3.06-4.44-2.53h0c-.91.25-1.68.85-2.17,1.66-.47.85-.6,1.84-.36,2.78h.01Z"/>
  <path fill="#35526A" d="M98.29,91.52c-.84,2.74-.29,9.04,4.9,9.57,6.86-.04,7.22-7.66,4.91-11.24-1.89-2.93-7.45-4.15-9.81,1.67Z"/>
  <path fill="#35526A" d="M153.2,91.52c.84,2.74.29,9.04-4.89,9.57-6.86-.04-7.22-7.66-4.92-11.24,1.89-2.93,7.45-4.15,9.81,1.67Z"/>
</svg>
